<svg width="16" height="19" viewBox="0 0 16 19" fill="none" xmlns="http://www.w3.org/2000/svg">
<path d="M7.96188 0.987793L7.96604 0.993434C8.15306 1.24729 8.56029 1.80003 7.72794 5.53597C8.57341 7.3975 9.77136 9.2938 10.9191 10.5923C11.7414 10.4332 12.4489 10.3529 13.0253 10.3529C14.0075 10.3529 14.6027 10.5977 14.8442 11.0985M7.96188 0.987793L6.6134 5.65566C6.07839 7.9244 5.18086 10.6398 4.23755 12.8437C1.86045 14.0045 0.597885 15.1445 0.483734 16.2324C0.442339 16.6282 0.530148 17.2093 1.18307 17.7315C1.36182 17.8739 1.57131 17.9495 1.78957 17.9495C2.33838 17.9495 2.89282 17.5015 3.53445 16.5407M7.96188 0.987793C7.9421 0.96093 7.92151 0.932387 7.90014 0.902773C7.70874 0.637539 7.45534 0.286377 7.17098 0.286377C7.03864 0.286377 6.67737 0.350568 6.53374 0.401385L7.96188 0.987793ZM14.8442 11.0985C15.0455 11.5151 14.9627 12.0005 14.5996 12.5428M14.8442 11.0985L14.9342 11.055C14.9342 11.055 14.9342 11.055 14.9343 11.0551M14.8442 11.0985L14.9343 11.0551M14.5996 12.5428C14.2509 13.0637 13.7692 13.3391 13.2072 13.3391C12.4445 13.3391 11.557 12.8256 10.566 11.8113M14.5996 12.5428L14.6827 12.5984M14.5996 12.5428L14.6827 12.5984C14.6827 12.5984 14.6827 12.5984 14.6827 12.5984M10.566 11.8113C8.78666 12.2078 6.70873 12.9152 5.02908 13.6982M10.566 11.8113L10.4945 11.8812C10.5076 11.8945 10.5206 11.9078 10.5336 11.921M10.566 11.8113L10.5878 11.9089C10.5698 11.9129 10.5517 11.9169 10.5336 11.921M5.02908 13.6982C4.50474 14.8844 4.00235 15.8399 3.53445 16.5407M5.02908 13.6982L5.07133 13.7888C5.08264 13.7836 5.09397 13.7783 5.10531 13.773M5.02908 13.6982L5.12054 13.7386C5.11546 13.7501 5.11039 13.7616 5.10531 13.773M3.53445 16.5407L3.61762 16.5962C3.2941 17.0807 2.98855 17.4421 2.69003 17.6832C2.3906 17.925 2.0933 18.0495 1.78957 18.0495C1.54742 18.0495 1.31621 17.9655 1.12075 17.8097L1.12061 17.8096C0.437156 17.263 0.339897 16.6464 0.384277 16.222L0.38428 16.222C0.445025 15.643 0.809328 15.0651 1.44502 14.4911C2.07579 13.9217 2.98365 13.3472 4.1602 12.7702C5.09153 10.588 5.97673 7.90955 6.50848 5.66481M3.53445 16.5407L3.61762 16.5962C4.08536 15.8957 4.58522 14.9462 5.10531 13.773M6.50848 5.66481L10.9565 10.4833C11.7586 10.3306 12.4537 10.2529 13.0253 10.2529C14.0153 10.2529 14.666 10.4988 14.9343 11.0551M6.50848 5.66481C6.19875 4.94291 5.89366 4.11452 5.71929 3.32619C5.54331 2.5306 5.49632 1.75823 5.72968 1.17656L5.7297 1.17652C5.88847 0.781344 6.09757 0.450258 6.50026 0.307158L6.50039 0.307112C6.58027 0.278847 6.71319 0.248964 6.83893 0.226397C6.96405 0.203943 7.09512 0.186377 7.17098 0.186377C7.37356 0.186377 7.54755 0.323364 7.68393 0.468245C7.79567 0.586945 7.89796 0.728763 7.98313 0.84684C8.00395 0.875707 8.02375 0.903155 8.04241 0.9285L8.04242 0.928521C8.04385 0.930457 8.04529 0.932417 8.04675 0.934401C8.09391 0.998405 8.15968 1.08766 8.21532 1.24114C8.27205 1.3976 8.31682 1.61623 8.32869 1.94107C8.35223 2.5853 8.24666 3.66058 7.83282 5.525L6.50848 5.66481ZM5.10531 13.773C6.75542 13.0073 8.78551 12.3154 10.5336 11.921M10.5336 11.921C11.5136 12.9139 12.4127 13.4391 13.2072 13.4391C13.8068 13.4391 14.3179 13.1433 14.6827 12.5984M14.6827 12.5984C15.0564 12.0403 15.157 11.5159 14.9343 11.0551M2.0788 15.6728C2.3313 15.418 2.69825 15.1233 3.20216 14.7999C2.77756 15.5975 2.44689 16.0685 2.20912 16.3454C2.01527 16.5711 1.88548 16.6652 1.81947 16.703C1.71539 16.6096 1.6692 16.5358 1.64845 16.4847C1.62617 16.4298 1.62991 16.3936 1.6324 16.3695L1.6325 16.3685C1.63251 16.3685 1.63251 16.3685 1.63251 16.3684C1.6483 16.2179 1.77364 15.9808 2.0788 15.6728ZM6.89247 1.74897C6.91254 1.71116 6.9317 1.67853 6.94874 1.65168C6.9539 1.6598 6.95925 1.66854 6.96477 1.67789C7.01333 1.76035 7.07195 1.88759 7.11258 2.05846C7.18733 2.37281 7.20224 2.83912 6.97554 3.45129C6.65609 3.02948 6.63943 2.58698 6.71585 2.23268C6.7581 2.0368 6.82885 1.86882 6.89247 1.74897ZM5.82803 12.0289C6.4026 10.5463 6.93681 8.93615 7.35679 7.42213C8.01174 8.64569 8.77756 9.82671 9.54924 10.8003C8.32372 11.1149 7.03321 11.5413 5.82803 12.0289ZM13.6585 11.8338C13.581 11.9494 13.4548 12.0136 13.3199 12.0481C13.1855 12.0826 13.0546 12.0844 12.9826 12.0844C12.844 12.0844 12.7501 12.0432 12.6248 11.9468C12.5604 11.8971 12.49 11.8346 12.4014 11.756L12.399 11.7539C12.3545 11.7144 12.3061 11.6715 12.2526 11.6251C12.5834 11.5907 12.8921 11.581 13.1482 11.581C13.4227 11.581 13.5782 11.6026 13.6716 11.627C13.7099 11.637 13.7378 11.6474 13.7605 11.6578C13.7404 11.7007 13.7086 11.7588 13.6585 11.8338Z" fill="white" stroke="white" stroke-width="0.2"/>
</svg>
