<svg width="30" height="40" viewBox="0 0 30 40" fill="none" xmlns="http://www.w3.org/2000/svg">
<path d="M28.4685 8.56494L28.9521 9.08047C29.2672 9.41634 29.3242 9.82917 29.3242 10.3464V27.0775V38.135V38.4446C29.3242 38.756 29.1777 39.0555 28.9555 39.2964C28.7329 39.5378 28.4285 39.7272 28.0979 39.8182M28.4685 8.56494L28.0714 39.7217M28.4685 8.56494L22.1369 1.81488L21.6534 1.29935C21.4163 1.04662 21.0867 0.9 20.7475 0.9H2.5448C2.14534 0.9 1.73215 1.06453 1.41961 1.40681C1.10664 1.74957 0.9 2.26424 0.9 2.95648V27.0775V38.135V38.4446C0.9 38.756 1.04643 39.0555 1.26863 39.2964C1.49123 39.5378 1.79563 39.7272 2.12628 39.8182M28.4685 8.56494L2.1528 39.7217M28.0979 39.8182L28.0714 39.7217M28.0979 39.8182C28.0979 39.8181 28.098 39.8181 28.0981 39.8181L28.0714 39.7217M28.0979 39.8182C28.0853 39.8217 28.0737 39.8257 28.056 39.8315C28.0398 39.8369 28.0198 39.8432 27.9977 39.8477C27.8937 39.8697 27.7871 39.8819 27.6793 39.8819H2.5448C2.4369 39.8819 2.33021 39.8697 2.22615 39.8477M28.0714 39.7217C28.059 39.7252 28.0469 39.7292 28.0348 39.7332C28.016 39.7395 27.9971 39.7458 27.9773 39.7498C27.8794 39.7706 27.7797 39.7819 27.6793 39.7819H2.5448C2.44445 39.7819 2.34472 39.7706 2.24688 39.7498M2.22615 39.8477C2.22637 39.8477 2.22658 39.8477 2.22679 39.8478L2.24688 39.7498M2.22615 39.8477L2.24688 39.7498M2.22615 39.8477C2.2042 39.8431 2.18425 39.8368 2.16817 39.8315C2.1639 39.8301 2.16 39.8288 2.15634 39.8276C2.14483 39.8238 2.13585 39.8208 2.12628 39.8182M2.24688 39.7498C2.22707 39.7458 2.20818 39.7395 2.18938 39.7332C2.17723 39.7292 2.16511 39.7252 2.1528 39.7217M2.1528 39.7217L2.12628 39.8182M2.1528 39.7217L2.12609 39.8181C2.12615 39.8181 2.12621 39.8181 2.12628 39.8182M27.7245 10.4612C27.7748 10.4612 27.8232 10.456 27.8697 10.4479V26.9775H2.35441V2.95648C2.35441 2.88633 2.35966 2.74281 2.39465 2.61985C2.4122 2.55818 2.43503 2.50983 2.46171 2.47857C2.48586 2.45027 2.51135 2.43731 2.5448 2.43731H20.357C20.3486 2.48915 20.3433 2.54306 20.3433 2.59875V10.3612V10.4612H20.4433H27.7245ZM21.7977 3.63653L26.7573 8.92385H21.7977V3.63653ZM2.5448 38.3446C2.52404 38.3446 2.50441 38.3372 2.46189 38.3206C2.39962 38.2873 2.35441 38.2186 2.35441 38.135V28.5148H27.8697V38.135C27.8697 38.2182 27.8249 38.2866 27.762 38.3207C27.7197 38.3372 27.7001 38.3446 27.6793 38.3446H2.5448Z" fill="white" stroke="white" stroke-width="0.2"/>
</svg>
