<svg width="5" height="8" viewBox="0 0 5 8" fill="none" xmlns="http://www.w3.org/2000/svg">
<path d="M2.86058 1.33416L2.81226 1.42172C2.96041 1.50347 3.07197 1.60301 3.15097 1.7192C3.23246 1.84001 3.28525 1.96478 3.31131 2.09389C3.33867 2.23265 3.35203 2.3522 3.35203 2.45345C3.35203 2.72132 3.32138 2.9397 3.26324 3.11206C3.20309 3.28849 3.12756 3.41801 3.0386 3.50764C2.94471 3.60224 2.84387 3.66846 2.7362 3.70829C2.62359 3.74994 2.5105 3.77095 2.3977 3.77095H1.55439V1.30177H2.22585C2.47864 1.30177 2.67162 1.3444 2.81241 1.4218L2.86058 1.33416ZM2.86058 1.33416C2.70002 1.2459 2.48865 1.20177 2.22585 1.20177H1.55439L3.40938 2.07434C3.38053 1.93125 3.3222 1.79418 3.23376 1.66313C3.1447 1.53208 3.02052 1.42242 2.86058 1.33416ZM3.81401 0.843096L3.81388 0.842976C3.59549 0.652111 3.34849 0.507805 3.07339 0.4126C2.80035 0.31744 2.52334 0.269995 2.24341 0.269995H0.425781H0.325781V0.369995V7.10712V7.20712H0.425781H1.45502H1.55502V7.10712V4.77531H2.21832C2.5599 4.77531 2.87565 4.72219 3.16251 4.61373C3.44835 4.50564 3.69485 4.35216 3.89985 4.15335C4.10563 3.9538 4.26426 3.70801 4.37802 3.41878L4.37809 3.4186C4.49172 3.12802 4.54803 2.80654 4.54803 2.45412C4.54803 2.11747 4.48059 1.81116 4.34445 1.53648C4.21018 1.26556 4.03287 1.03507 3.81401 0.843096Z" fill="white" stroke="white" stroke-width="0.2"/>
</svg>
