<svg width="6" height="8" viewBox="0 0 6 8" fill="none" xmlns="http://www.w3.org/2000/svg">
<path d="M5.03956 1.29042L5.03949 1.29034C4.76329 0.980619 4.41703 0.73251 4.00193 0.548068C3.5836 0.362194 3.10205 0.269995 2.55952 0.269995H0.655945H0.555945V0.369995V7.10712V7.20712H0.655945H3.04811C3.13454 7.20712 3.26279 7.19569 3.42968 7.17421L3.42972 7.1742C3.60465 7.1516 3.79551 7.10112 4.00131 7.02205C4.21091 6.9422 4.42534 6.82336 4.6452 6.6671C4.87191 6.50598 5.07279 6.28735 5.25013 6.01343C5.42874 5.73754 5.57342 5.39882 5.687 4.99883C5.80188 4.59427 5.85827 4.11048 5.85827 3.55001C5.85827 3.13636 5.79056 2.73354 5.65587 2.34264L5.65576 2.34231C5.51918 1.95039 5.31437 1.59927 5.03956 1.29042ZM4.13087 5.53483L4.13084 5.53488C3.8451 5.97507 3.37823 6.20209 2.70566 6.20209H1.78519V1.3011H2.28543C2.76897 1.3011 3.15391 1.369 3.44531 1.49843C3.74205 1.63024 3.97295 1.80122 4.14134 2.0095C4.31191 2.22048 4.42616 2.45474 4.48606 2.71391C4.54709 2.98071 4.57759 3.25067 4.57759 3.52326C4.57759 4.4164 4.42436 5.08332 4.13087 5.53483Z" fill="white" stroke="white" stroke-width="0.2"/>
</svg>
